<?xml version="1.0" encoding="UTF-8" standalone="no"?>
<!-- Created with Inkscape (http://www.inkscape.org/) -->

<svg
   width="309mm"
   height="46mm"
   viewBox="0 0 309 46"
   version="1.1"
   id="svg5"
   inkscape:version="1.1.2 (b8e25be833, 2022-02-05)"
   sodipodi:docname="palavreco.svg"
   inkscape:export-filename="C:\Users\Gabriel\Desktop\palavreco.png"
   inkscape:export-xdpi="96"
   inkscape:export-ydpi="96"
   xmlns:inkscape="http://www.inkscape.org/namespaces/inkscape"
   xmlns:sodipodi="http://sodipodi.sourceforge.net/DTD/sodipodi-0.dtd"
   xmlns="http://www.w3.org/2000/svg"
   xmlns:svg="http://www.w3.org/2000/svg">
  <sodipodi:namedview
     id="namedview7"
     pagecolor="#ff00ff"
     bordercolor="#666666"
     borderopacity="1.0"
     inkscape:pageshadow="2"
     inkscape:pageopacity="0"
     inkscape:pagecheckerboard="0"
     inkscape:document-units="px"
     showgrid="false"
     inkscape:zoom="0.74029882"
     inkscape:cx="614.61668"
     inkscape:cy="140.48381"
     inkscape:window-width="1920"
     inkscape:window-height="1017"
     inkscape:window-x="-8"
     inkscape:window-y="-8"
     inkscape:window-maximized="1"
     inkscape:current-layer="layer1"
     width="314mm" />
  <defs
     id="defs2" />
  <g
     inkscape:label="Camada 1"
     inkscape:groupmode="layer"
     id="layer1">
    <text
       xml:space="preserve"
       style="font-size:50.8px;line-height:1.25;font-family:'Rampart One';-inkscape-font-specification:'Rampart One';white-space:pre;inline-size:314.408;fill:#ffffff;stroke-width:0.264583"
       x="49.321301"
       y="30.02166"
       id="text4143"
       transform="translate(-50.92267,11.265057)"><tspan
         x="49.321301"
         y="30.02166"
         id="tspan32">PALAVRECO</tspan></text>
    <path
       style="fill:#c83737;stroke-width:0.264583"
       d="m 33.538441,40.610245 c 0.105058,-0.273778 2.468057,-8.677161 5.251111,-18.674189 2.783055,-9.997028 5.247384,-18.3628932 5.476286,-18.5908122 0.236262,-0.235247 1.869776,-0.467012 3.778514,-0.536101 l 3.362325,-0.121703 5.406787,18.2274352 5.406785,18.227438 -1.084996,0.226004 c -0.596749,0.124299 -2.235615,0.31469 -3.641926,0.423088 l -2.556928,0.197085 -1.181224,-4.097025 c -0.649672,-2.253361 -1.291633,-4.275667 -1.426576,-4.494009 -0.179657,-0.290693 -1.416071,-0.28584 -4.617751,0.01812 -2.404822,0.228311 -4.484135,0.484166 -4.620697,0.568565 -0.136562,0.0844 -0.779312,2.070593 -1.428332,4.413761 l -1.180036,4.260305 -2.151764,0.224901 c -3.592206,0.37546 -5.009396,0.294757 -4.791578,-0.272867 z M 50.476132,24.168883 c 0.04163,-0.03831 -0.298481,-1.429684 -0.755814,-3.091937 -0.457332,-1.662253 -1.039852,-4.188073 -1.294487,-5.612932 -0.254637,-1.42486 -0.590761,-2.590654 -0.746942,-2.590654 -0.156184,0 -0.386451,0.603114 -0.51171,1.340253 -0.125259,0.737139 -0.695452,3.285904 -1.267097,5.663921 -0.571646,2.37802 -1.039355,4.447501 -1.039355,4.59885 0,0.223576 5.35708,-0.06978 5.615405,-0.307501 z"
       id="path494" />
    <path
       style="fill:#c83737;stroke-width:0.264583"
       d="m 140.8631,39.784039 c -0.1083,-0.352949 -2.29507,-8.281165 -4.85948,-17.618258 -2.56441,-9.337096 -4.74667,-17.2430432 -4.84948,-17.5687752 -0.16082,-0.509523 0.25174,-0.624778 2.95387,-0.825211 1.72744,-0.128134 3.54679,-0.308716 4.04299,-0.401293 l 0.90219,-0.168322 2.57926,10.4646512 c 1.4186,5.755559 2.6838,11.393949 2.81156,12.529755 0.12776,1.135809 0.34454,2.134476 0.48173,2.219264 0.13719,0.08479 0.5067,-1.407416 0.82114,-3.316007 0.56715,-3.442457 4.79963,-21.8906092 5.08856,-22.1795422 0.18546,-0.185452 6.99412,-0.826438 7.32036,-0.689158 0.12926,0.05439 -1.95552,8.4461892 -4.63283,18.6484372 -4.08435,15.563909 -4.98044,18.590181 -5.56739,18.802044 -0.38475,0.138877 -2.09365,0.363119 -3.79756,0.498321 -2.79287,0.221602 -3.1174,0.182608 -3.29492,-0.395906 z"
       id="path533" />
    <path
       style="fill:#c83737;stroke-width:0.264583"
       d="M 168.87878,22.432758 V 3.7328778 l 7.05866,-0.587623 c 7.84311,-0.652926 9.72622,-0.498306 11.96359,0.98232 3.11482,2.061289 4.38261,5.151958 4.14573,10.1065992 -0.21981,4.597406 -1.65792,7.284261 -5.20179,9.718608 -0.77779,0.534286 -0.76653,0.560805 3.32298,7.824459 2.25688,4.008599 4.03461,7.357171 3.95051,7.441274 -0.22911,0.229108 -7.74258,0.920901 -7.93305,0.730428 -0.0905,-0.0905 -1.74478,-3.043127 -3.67617,-6.561397 -3.48675,-6.351556 -3.52023,-6.396858 -4.72898,-6.396858 h -1.21737 l -0.0971,6.676522 -0.0971,6.67652 -2.04726,0.212561 c -1.12599,0.116909 -2.8112,0.294415 -3.74491,0.394457 l -1.69765,0.18189 z m 13.19548,-3.067735 c 1.58728,-0.771918 2.53159,-2.596214 2.52488,-4.877783 -0.0106,-3.608099 -1.81529,-5.0300382 -5.85827,-4.6158237 l -2.35668,0.2414487 v 5.168047 5.168048 l 2.23376,-0.244692 c 1.22856,-0.134583 2.7839,-0.512241 3.45631,-0.839245 z"
       id="path611" />
    <path
       style="fill:#c83737;stroke-width:0.264583"
       d="M 204.26145,22.351158 V 3.6992258 l 9.38177,-0.793353 c 5.15997,-0.436344 9.82405,-0.877812 10.36462,-0.981041 l 0.98285,-0.187688 v 3.602405 c 0,3.192038 -0.0712,3.60257 -0.62545,3.603863 -0.344,7.94e-4 -3.19874,0.240143 -6.34386,0.5318665 -3.14513,0.291724 -5.83904,0.5323127 -5.98647,0.5346417 -0.14742,0.0023 -0.26805,1.705732 -0.26805,3.785339 v 3.781106 l 0.98286,-0.185736 c 0.54056,-0.102155 2.26949,-0.280957 3.84205,-0.397339 1.57257,-0.116382 3.46232,-0.300963 4.19946,-0.410178 l 1.34025,-0.198574 v 3.419913 c 0,3.943369 0.37776,3.607927 -4.4675,3.967081 -1.57257,0.116564 -3.54274,0.303709 -4.37816,0.415874 l -1.51896,0.203938 v 4.42693 4.426929 l 1.16156,-2.65e-4 c 1.18645,-2.65e-4 7.51248,-0.529791 10.91399,-0.913498 l 1.88963,-0.213156 -0.10263,3.502059 -0.10262,3.50206 -8.93502,0.786445 c -4.91426,0.432543 -9.69896,0.855707 -10.63267,0.940361 l -1.69765,0.153913 z"
       id="path650" />
    <path
       style="fill:#2aff80;stroke-width:0.264583"
       d="m 244.60566,40.634618 c -6.07659,-2.265561 -9.58463,-8.708083 -9.60154,-17.633246 -0.0178,-9.374061 3.83776,-16.8439742 10.26055,-19.8793532 2.19233,-1.036086 2.74162,-1.144387 5.81627,-1.14676 3.09935,-0.0024 3.56243,0.08994 5.31249,1.059252 1.05444,0.58403 2.44818,1.709889 3.09718,2.501911 1.49715,1.827082 3.19496,5.1814232 2.79552,5.5230932 -0.16746,0.14324 -1.37869,1.012029 -2.69161,1.930642 -2.31752,1.621487 -3.15256,1.985451 -3.15256,1.374081 0,-0.16287 -0.48738,-1.031928 -1.08306,-1.93124 -2.28544,-3.4503832 -6.69181,-3.6730532 -9.86628,-0.498581 -1.81715,1.81715 -2.59385,4.143738 -2.87898,8.623858 -0.37424,5.880153 0.86603,10.135672 3.46914,11.903126 1.06222,0.721228 1.58842,0.826902 3.57656,0.718283 2.99213,-0.163468 4.14895,-0.969841 5.75446,-4.011184 l 1.22325,-2.317213 2.92925,1.603584 2.92925,1.603581 -0.85823,1.940613 c -1.75527,3.968978 -4.24122,6.776633 -7.16107,8.087784 -2.22157,0.99759 -7.8294,1.308798 -9.87059,0.547769 z"
       id="path726" />
    <path
       style="fill:#2aff80;stroke-width:0.264583"
       d="m 282.1748,40.793027 c -6.42762,-2.100569 -10.00723,-8.60851 -10.00723,-18.19388 0,-9.193403 3.57982,-16.1434502 9.93223,-19.2829742 2.62323,-1.296475 2.85054,-1.343534 6.4897,-1.343534 3.49956,0 3.90702,0.07523 5.65618,1.044336 5.37453,2.977692 8.08514,8.7488732 8.07048,17.1830992 -0.0164,9.402533 -3.55952,16.532258 -9.72407,19.567055 -2.09987,1.033767 -2.6955,1.15769 -5.92908,1.233554 -1.9771,0.04639 -3.99677,-0.04706 -4.48821,-0.207656 z m 7.24885,-7.67189 c 1.72767,-0.723271 3.70866,-3.134712 4.35803,-5.304999 0.76991,-2.573132 1.06108,-7.768429 0.61256,-10.929525 -0.85672,-6.038053 -3.80867,-8.5340332 -8.52977,-7.2122097 -2.48531,0.6958417 -4.20775,2.5936077 -5.0796,5.5966367 -2.0756,7.149145 -0.69842,15.795927 2.81398,17.667862 1.47066,0.783797 4.18499,0.86872 5.8248,0.182235 z"
       id="path765" />
    <path
       style="fill:#2aff80;stroke-width:0.264583"
       d="m 2.4161866,22.468654 0.092553,-18.6969422 6.790614,-0.596329 c 9.3954394,-0.825078 11.3670864,-0.417578 14.2445154,2.944052 1.822799,2.12953 2.485988,4.6678032 2.307683,8.8323912 -0.182902,4.271949 -1.333329,7.151791 -3.745005,9.374799 -2.171215,2.001356 -4.271333,2.802501 -8.579608,3.272922 l -3.6914848,0.403072 v 6.163884 6.163882 L 8.4952017,40.522779 C 7.7580627,40.628591 6.067903,40.816514 4.7392914,40.940381 L 2.3236337,41.1656 Z M 15.635851,19.967379 c 1.480952,-0.742003 2.2134,-1.913914 2.535084,-4.056113 0.438186,-2.918027 -0.865956,-5.609477 -2.913347,-6.0124797 -0.525044,-0.103348 -1.959815,-0.09641 -3.18838,0.01541 L 9.8354543,10.117515 v 5.48255 5.482551 l 2.2337537,-0.223714 c 1.228565,-0.123039 2.833555,-0.524226 3.566643,-0.891526 z"
       id="path804" />
    <path
       style="fill:#ddff55;stroke-width:0.264583"
       d="m 97.041231,40.156921 c 0,-1.47841 9.871859,-36.6288402 10.374269,-36.9393462 0.41018,-0.253502 6.78144,-0.834928 6.96497,-0.635606 0.18567,0.201646 10.86044,36.5357532 10.76273,36.6334692 -0.25863,0.258623 -6.85725,0.762201 -7.06758,0.539367 -0.13242,-0.140301 -0.75705,-2.024224 -1.38807,-4.186497 -0.63102,-2.162276 -1.27862,-4.073986 -1.4391,-4.248243 -0.25602,-0.27799 -8.85221,0.313809 -9.16968,0.63128 -0.064,0.06396 -0.65892,1.999173 -1.32213,4.300466 -0.66321,2.301296 -1.27337,4.251717 -1.35593,4.33427 -0.0825,0.08255 -1.54721,0.257489 -3.25479,0.388744 l -3.104689,0.238644 z M 112.86095,24.310183 c 0.79766,0 0.82809,0.284639 -0.55399,-5.18231 -0.49694,-1.965704 -1.00612,-4.177121 -1.13151,-4.91426 -0.30625,-1.800355 -0.76495,-1.692548 -1.03012,0.242106 -0.19518,1.423985 -1.71513,7.932468 -2.25165,9.641679 -0.19952,0.635621 -0.0654,0.665215 2.02478,0.446751 1.23115,-0.128683 2.55527,-0.233966 2.94249,-0.233966 z"
       id="path880" />
    <path
       style="fill:#00ff66;stroke-width:0.264583"
       d="M 71.30838,22.270963 V 3.5809418 l 0.982853,-0.02543 c 0.540567,-0.01399 2.229286,-0.138899 3.752707,-0.277585 l 2.769854,-0.252156 V 18.009538 32.993306 l 3.484658,-0.244255 c 1.916562,-0.134343 4.650676,-0.342511 6.075812,-0.462598 l 2.591155,-0.218339 v 3.58925 3.589253 l -2.948554,0.261424 c -1.621708,0.143788 -6.044541,0.529519 -9.828522,0.857187 l -6.879963,0.595759 z"
       id="path956" />
  </g>
</svg>
